{
    "asset" : {
        "generator" : "Khronos glTF Blender I/O v3.3.27",
        "version" : "2.0"
    },
    "scene" : 0,
    "scenes" : [
        {
            "name" : "Scene",
            "nodes" : [
                0,
                1
            ]
        }
    ],
    "nodes" : [
        {
            "name" : "icloud",
            "translation" : [
                4.4546613693237305,
                0.9030455350875854,
                -1.5929828882217407
            ]
        },
        {
            "mesh" : 0,
            "name" : "Cube.002",
            "translation" : [
                0.6972669363021851,
                -6.64003849029541,
                -8.80180835723877
            ]
        }
    ],
    "materials" : [
        {
            "doubleSided" : true,
            "name" : "normal",
            "pbrMetallicRoughness" : {}
        }
    ],
    "meshes" : [
        {
            "name" : "Cube.002",
            "primitives" : [
                {
                    "attributes" : {
                        "POSITION" : 0,
                        "NORMAL" : 1
                    },
                    "indices" : 2,
                    "material" : 0
                }
            ]
        }
    ],
    "accessors" : [
        {
            "bufferView" : 0,
            "componentType" : 5126,
            "count" : 20,
            "max" : [
                2.934558868408203,
                4.404476642608643,
                1
            ],
            "min" : [
                -1.6400197744369507,
                -0.32774290442466736,
                -5.603822231292725
            ],
            "type" : "VEC3"
        },
        {
            "bufferView" : 1,
            "componentType" : 5126,
            "count" : 20,
            "type" : "VEC3"
        },
        {
            "bufferView" : 2,
            "componentType" : 5123,
            "count" : 108,
            "type" : "SCALAR"
        }
    ],
    "bufferViews" : [
        {
            "buffer" : 0,
            "byteLength" : 240,
            "byteOffset" : 0,
            "target" : 34962
        },
        {
            "buffer" : 0,
            "byteLength" : 240,
            "byteOffset" : 240,
            "target" : 34962
        },
        {
            "buffer" : 0,
            "byteLength" : 216,
            "byteOffset" : 480,
            "target" : 34963
        }
    ],
    "buffers" : [
        {
            "byteLength" : 696,
            "uri" : "coulds.bin"
        }
    ]
}
